<mxfile host="app.diagrams.net" agent="Mozilla/5.0 (X11; Ubuntu; Linux x86_64; rv:130.0) Gecko/20100101 Firefox/130.0" version="24.7.17">
  <diagram name="Page-1" id="PFNefsPWHBKd8FxRydi-">
    <mxGraphModel>
      <root>
        <mxCell id="0" />
        <mxCell id="1" parent="0" />
        <mxCell id="2" value="Interactive Terminal" style="whiteSpace=wrap;strokeWidth=2;verticalAlign=top;" vertex="1" parent="1">
          <mxGeometry x="8" y="8" width="1280" height="522" as="geometry" />
        </mxCell>
        <mxCell id="3" value="Key Features" style="whiteSpace=wrap;strokeWidth=2;verticalAlign=top;" vertex="1" parent="2">
          <mxGeometry x="46" y="43" width="1205" height="452" as="geometry" />
        </mxCell>
        <mxCell id="4" value="Highlighting Problem Areas" style="whiteSpace=wrap;strokeWidth=2;verticalAlign=top;" vertex="1" parent="3">
          <mxGeometry x="43" y="138" width="325" height="192" as="geometry" />
        </mxCell>
        <mxCell id="5" value="Terminal highlights problem areas" style="whiteSpace=wrap;strokeWidth=2;" vertex="1" parent="4">
          <mxGeometry x="43" y="71" width="255" height="67" as="geometry" />
        </mxCell>
        <mxCell id="6" value="User Interaction" style="whiteSpace=wrap;strokeWidth=2;verticalAlign=top;" vertex="1" parent="3">
          <mxGeometry x="418" y="76" width="336" height="317" as="geometry" />
        </mxCell>
        <mxCell id="7" value="Accept suggestion" style="whiteSpace=wrap;strokeWidth=2;" vertex="1" parent="6">
          <mxGeometry x="81" y="43" width="191" height="49" as="geometry" />
        </mxCell>
        <mxCell id="8" value="Reject suggestion" style="whiteSpace=wrap;strokeWidth=2;" vertex="1" parent="6">
          <mxGeometry x="83" y="142" width="187" height="49" as="geometry" />
        </mxCell>
        <mxCell id="9" value="Request more details" style="whiteSpace=wrap;strokeWidth=2;" vertex="1" parent="6">
          <mxGeometry x="71" y="241" width="211" height="49" as="geometry" />
        </mxCell>
        <mxCell id="10" value="Real-Time Suggestions" style="whiteSpace=wrap;strokeWidth=2;verticalAlign=top;" vertex="1" parent="3">
          <mxGeometry x="804" y="58" width="374" height="352" as="geometry" />
        </mxCell>
        <mxCell id="11" value="Write code in IDE" style="whiteSpace=wrap;strokeWidth=2;" vertex="1" parent="10">
          <mxGeometry x="103" y="43" width="184" height="49" as="geometry" />
        </mxCell>
        <mxCell id="12" value="Terminal shows suggestions" style="whiteSpace=wrap;strokeWidth=2;" vertex="1" parent="10">
          <mxGeometry x="110" y="142" width="170" height="67" as="geometry" />
        </mxCell>
        <mxCell id="13" value="Terminal shows alternative approaches" style="whiteSpace=wrap;strokeWidth=2;" vertex="1" parent="10">
          <mxGeometry x="71" y="259" width="249" height="67" as="geometry" />
        </mxCell>
      </root>
    </mxGraphModel>
  </diagram>
</mxfile>
